<svg xmlns="http://www.w3.org/2000/svg" viewBox="0 0 299 64" role="img" aria-label="Streamient">
  <rect x="6" y="6" width="54" height="54" rx="7" fill="#0f0e0c"/>
  <rect x="2" y="2" width="54" height="54" rx="7" fill="#fff6df" stroke="#0f0e0c" stroke-width="3"/>
  <path d="M47 17H27C19 17 19 29 27 29H35C43 29 43 41 35 41H11" fill="none" stroke="#0f0e0c" stroke-width="12" stroke-linecap="round" stroke-linejoin="round"/>
  <path d="M47 17H27C19 17 19 29 27 29H35C43 29 43 41 35 41H11" fill="none" stroke="#6c7bff" stroke-width="6" stroke-linecap="round" stroke-linejoin="round"/>
  <g transform="translate(76 40) scale(0.021000)">
    <path d="M562.0 30.0Q358.0 30.0 232.5 -62.5Q107.0 -155.0 80.0 -324.0L358.0 -366.0Q375.0 -290.0 433.5 -247.0Q492.0 -204.0 582.0 -204.0Q656.0 -204.0 696.0 -232.5Q736.0 -261.0 736.0 -312.0Q736.0 -344.0 720.0 -363.5Q704.0 -383.0 648.5 -402.0Q593.0 -421.0 476.0 -452.0Q344.0 -486.0 265.0 -528.0Q186.0 -570.0 151.0 -628.5Q116.0 -687.0 116.0 -770.0Q116.0 -874.0 169.0 -950.5Q222.0 -1027.0 318.5 -1068.5Q415.0 -1110.0 546.0 -1110.0Q673.0 -1110.0 771.0 -1071.0Q869.0 -1032.0 929.5 -960.0Q990.0 -888.0 1004.0 -790.0L726.0 -740.0Q719.0 -800.0 674.0 -835.0Q629.0 -870.0 552.0 -876.0Q477.0 -881.0 431.5 -856.0Q386.0 -831.0 386.0 -784.0Q386.0 -756.0 405.5 -737.0Q425.0 -718.0 486.5 -698.0Q548.0 -678.0 674.0 -646.0Q797.0 -614.0 871.5 -571.5Q946.0 -529.0 980.0 -469.5Q1014.0 -410.0 1014.0 -326.0Q1014.0 -160.0 894.0 -65.0Q774.0 30.0 562.0 30.0Z M1826.0 0.0Q1714.0 21.0 1606.5 18.5Q1499.0 16.0 1414.5 -19.5Q1330.0 -55.0 1286.0 -134.0Q1246.0 -208.0 1244.0 -284.5Q1242.0 -361.0 1242.0 -458.0V-1380.0H1514.0V-474.0Q1514.0 -411.0 1515.5 -360.5Q1517.0 -310.0 1536.0 -280.0Q1572.0 -223.0 1651.0 -218.0Q1730.0 -213.0 1826.0 -226.0ZM1058.0 -870.0V-1080.0H1826.0V-870.0Z M2010.0 0.0V-1080.0H2250.0V-816.0L2224.0 -850.0Q2245.0 -906.0 2280.0 -952.0Q2315.0 -998.0 2366.0 -1028.0Q2405.0 -1052.0 2451.0 -1065.5Q2497.0 -1079.0 2546.0 -1082.5Q2595.0 -1086.0 2644.0 -1080.0V-826.0Q2599.0 -840.0 2539.5 -835.5Q2480.0 -831.0 2432.0 -808.0Q2384.0 -786.0 2351.0 -749.5Q2318.0 -713.0 2301.0 -663.5Q2284.0 -614.0 2284.0 -552.0V0.0Z M3260.0 30.0Q3094.0 30.0 2967.5 -41.5Q2841.0 -113.0 2769.5 -238.5Q2698.0 -364.0 2698.0 -526.0Q2698.0 -703.0 2768.0 -834.0Q2838.0 -965.0 2961.0 -1037.5Q3084.0 -1110.0 3244.0 -1110.0Q3414.0 -1110.0 3533.0 -1030.0Q3652.0 -950.0 3709.0 -805.0Q3766.0 -660.0 3749.0 -464.0H3480.0V-564.0Q3480.0 -729.0 3427.5 -801.5Q3375.0 -874.0 3256.0 -874.0Q3117.0 -874.0 3051.5 -789.5Q2986.0 -705.0 2986.0 -540.0Q2986.0 -389.0 3051.5 -306.5Q3117.0 -224.0 3244.0 -224.0Q3324.0 -224.0 3381.0 -259.0Q3438.0 -294.0 3468.0 -360.0L3740.0 -282.0Q3679.0 -134.0 3547.5 -52.0Q3416.0 30.0 3260.0 30.0ZM2902.0 -464.0V-666.0H3618.0V-464.0Z M4198.0 30.0Q4082.0 30.0 4001.5 -14.5Q3921.0 -59.0 3879.5 -133.5Q3838.0 -208.0 3838.0 -298.0Q3838.0 -373.0 3861.0 -435.0Q3884.0 -497.0 3935.5 -544.5Q3987.0 -592.0 4074.0 -624.0Q4134.0 -646.0 4217.0 -663.0Q4300.0 -680.0 4405.0 -695.5Q4510.0 -711.0 4636.0 -730.0L4538.0 -676.0Q4538.0 -772.0 4492.0 -817.0Q4446.0 -862.0 4338.0 -862.0Q4278.0 -862.0 4213.0 -833.0Q4148.0 -804.0 4122.0 -730.0L3876.0 -808.0Q3917.0 -942.0 4030.0 -1026.0Q4143.0 -1110.0 4338.0 -1110.0Q4481.0 -1110.0 4592.0 -1066.0Q4703.0 -1022.0 4760.0 -914.0Q4792.0 -854.0 4798.0 -794.0Q4804.0 -734.0 4804.0 -660.0V0.0H4566.0V-222.0L4600.0 -176.0Q4521.0 -67.0 4429.5 -18.5Q4338.0 30.0 4198.0 30.0ZM4256.0 -184.0Q4331.0 -184.0 4382.5 -210.5Q4434.0 -237.0 4464.5 -271.0Q4495.0 -305.0 4506.0 -328.0Q4527.0 -372.0 4530.5 -430.5Q4534.0 -489.0 4534.0 -528.0L4614.0 -508.0Q4493.0 -488.0 4418.0 -474.5Q4343.0 -461.0 4297.0 -450.0Q4251.0 -439.0 4216.0 -426.0Q4176.0 -410.0 4151.5 -391.5Q4127.0 -373.0 4115.5 -351.0Q4104.0 -329.0 4104.0 -302.0Q4104.0 -265.0 4122.5 -238.5Q4141.0 -212.0 4175.0 -198.0Q4209.0 -184.0 4256.0 -184.0Z M6308.0 0.0V-638.0Q6308.0 -745.0 6257.5 -804.5Q6207.0 -864.0 6118.0 -864.0Q6061.0 -864.0 6019.0 -837.5Q5977.0 -811.0 5953.5 -763.5Q5930.0 -716.0 5930.0 -654.0L5816.0 -730.0Q5816.0 -841.0 5868.5 -926.0Q5921.0 -1011.0 6009.5 -1058.5Q6098.0 -1106.0 6206.0 -1106.0Q6391.0 -1106.0 6485.5 -996.5Q6580.0 -887.0 6580.0 -710.0V0.0ZM5006.0 0.0V-1080.0H5246.0V-722.0H5280.0V0.0ZM5658.0 0.0V-638.0Q5658.0 -745.0 5607.5 -804.5Q5557.0 -864.0 5468.0 -864.0Q5383.0 -864.0 5331.5 -805.5Q5280.0 -747.0 5280.0 -654.0L5166.0 -734.0Q5166.0 -840.0 5219.0 -924.0Q5272.0 -1008.0 5361.5 -1057.0Q5451.0 -1106.0 5562.0 -1106.0Q5689.0 -1106.0 5770.5 -1052.0Q5852.0 -998.0 5891.0 -908.0Q5930.0 -818.0 5930.0 -710.0V0.0Z" fill="#0f0e0c"/>
    <path d="M6804.0 -1230.0V-1470.0H7076.0V-1230.0ZM6804.0 0.0V-1080.0H7076.0V0.0Z M7822.0 30.0Q7656.0 30.0 7529.5 -41.5Q7403.0 -113.0 7331.5 -238.5Q7260.0 -364.0 7260.0 -526.0Q7260.0 -703.0 7330.0 -834.0Q7400.0 -965.0 7523.0 -1037.5Q7646.0 -1110.0 7806.0 -1110.0Q7976.0 -1110.0 8095.0 -1030.0Q8214.0 -950.0 8271.0 -805.0Q8328.0 -660.0 8311.0 -464.0H8042.0V-564.0Q8042.0 -729.0 7989.5 -801.5Q7937.0 -874.0 7818.0 -874.0Q7679.0 -874.0 7613.5 -789.5Q7548.0 -705.0 7548.0 -540.0Q7548.0 -389.0 7613.5 -306.5Q7679.0 -224.0 7806.0 -224.0Q7886.0 -224.0 7943.0 -259.0Q8000.0 -294.0 8030.0 -360.0L8302.0 -282.0Q8241.0 -134.0 8109.5 -52.0Q7978.0 30.0 7822.0 30.0ZM7464.0 -464.0V-666.0H8180.0V-464.0Z M9186.0 0.0V-510.0Q9186.0 -547.0 9182.0 -604.5Q9178.0 -662.0 9157.0 -720.0Q9136.0 -778.0 9088.5 -817.0Q9041.0 -856.0 8954.0 -856.0Q8919.0 -856.0 8879.0 -845.0Q8839.0 -834.0 8804.0 -802.5Q8769.0 -771.0 8746.5 -710.0Q8724.0 -649.0 8724.0 -548.0L8568.0 -622.0Q8568.0 -750.0 8620.0 -862.0Q8672.0 -974.0 8776.5 -1043.0Q8881.0 -1112.0 9040.0 -1112.0Q9167.0 -1112.0 9247.0 -1069.0Q9327.0 -1026.0 9371.5 -960.0Q9416.0 -894.0 9435.0 -822.5Q9454.0 -751.0 9458.0 -692.0Q9462.0 -633.0 9462.0 -606.0V0.0ZM8448.0 0.0V-1080.0H8690.0V-722.0H8724.0V0.0Z M10314.0 0.0Q10202.0 21.0 10094.5 18.5Q9987.0 16.0 9902.5 -19.5Q9818.0 -55.0 9774.0 -134.0Q9734.0 -208.0 9732.0 -284.5Q9730.0 -361.0 9730.0 -458.0V-1380.0H10002.0V-474.0Q10002.0 -411.0 10003.5 -360.5Q10005.0 -310.0 10024.0 -280.0Q10060.0 -223.0 10139.0 -218.0Q10218.0 -213.0 10314.0 -226.0ZM9546.0 -870.0V-1080.0H10314.0V-870.0Z" fill="#6c7bff"/>
  </g>
</svg>
